<?xml version="1.0" standalone="no"?>
<!DOCTYPE svg PUBLIC "-//W3C//DTD SVG 20010904//EN"
 "http://www.w3.org/TR/2001/REC-SVG-20010904/DTD/svg10.dtd">
<svg version="1.0" xmlns="http://www.w3.org/2000/svg"
 width="107.000000pt" height="107.000000pt" viewBox="0 0 1145.000000 1145.000000"
 preserveAspectRatio="xMidYMid meet">

<g transform="translate(0.000000,1145.000000) scale(0.100000,-0.100000)"
fill="#000000" stroke="none">
<path d="M2403 10435 c-188 -58 -300 -240 -398 -650 -47 -193 -121 -567 -139
-701 -49 -356 -39 -722 26 -932 26 -86 48 -116 98 -136 79 -31 148 -11 191 56
24 40 22 93 -10 238 -15 66 -24 147 -28 265 -9 270 16 496 104 914 76 367 117
506 173 594 41 64 66 75 117 48 108 -55 353 -270 550 -482 84 -91 150 -176
244 -318 l130 -194 -53 -26 c-75 -37 -101 -79 -96 -154 4 -46 10 -63 33 -87
16 -17 46 -36 67 -42 44 -13 61 -9 234 45 349 111 713 153 1232 144 444 -8
700 -44 989 -142 76 -26 151 -45 175 -45 85 0 149 74 134 153 -11 60 -43 96
-111 129 -77 35 -83 11 58 223 119 179 217 293 409 480 161 158 286 261 364
302 45 23 56 26 78 15 66 -30 126 -187 200 -522 148 -669 170 -1020 89 -1366
l-26 -112 24 -48 c57 -114 212 -115 269 -3 27 52 56 180 71 309 17 149 6 527
-20 700 -63 420 -163 856 -238 1034 -112 267 -314 381 -522 293 -131 -55 -290
-178 -520 -402 -217 -211 -315 -330 -469 -565 -74 -113 -137 -208 -141 -212
-4 -4 -49 1 -101 11 -489 97 -1184 95 -1699 -5 -69 -13 -125 -23 -126 -21
-278 432 -334 505 -580 753 -263 265 -453 408 -603 454 -73 23 -119 24 -179 5z"/>
<path d="M7505 7826 c-37 -16 -70 -52 -84 -89 -36 -94 7 -163 344 -556 93
-109 208 -208 353 -304 56 -38 99 -73 96 -78 -10 -17 -138 -76 -236 -108 -156
-52 -187 -104 -148 -247 51 -186 155 -359 288 -477 l42 -37 -16 -32 c-9 -17
-36 -51 -60 -75 -49 -50 -63 -95 -46 -151 8 -26 109 -149 326 -399 172 -200
341 -393 375 -429 l61 -67 -22 -38 c-11 -20 -37 -54 -57 -75 l-36 -36 -80 8
c-44 5 -141 9 -215 9 -130 0 -137 -1 -195 -30 -87 -44 -97 -66 -106 -239 -8
-157 -14 -183 -71 -308 -32 -71 -38 -94 -32 -124 13 -69 80 -124 152 -124 120
0 224 192 268 493 6 44 6 44 157 25 117 -14 191 -3 280 44 185 99 326 397 251
530 -5 9 -104 124 -220 255 -116 131 -272 307 -346 391 l-134 153 35 70 c44
88 52 170 26 251 -15 44 -34 69 -115 149 -94 92 -132 144 -164 221 l-16 37 74
34 c196 91 298 201 312 336 13 118 -46 196 -266 351 -166 118 -236 187 -450
444 -177 212 -204 236 -267 236 -15 -1 -41 -7 -58 -14z"/>
<path d="M1853 7778 c-17 -12 -95 -103 -173 -200 -217 -274 -276 -331 -499
-487 -176 -123 -236 -219 -212 -339 24 -118 111 -211 279 -294 80 -39 102 -55
97 -67 -25 -66 -90 -157 -163 -229 -89 -89 -127 -153 -138 -233 -8 -62 11
-147 46 -203 l30 -46 -262 -298 c-144 -163 -299 -337 -344 -387 -109 -120
-118 -139 -112 -236 6 -106 54 -204 142 -292 115 -115 247 -162 389 -139 166
26 164 26 170 0 4 -12 7 -41 7 -64 0 -98 69 -286 139 -382 92 -125 271 -72
271 79 0 34 -11 68 -39 125 -49 98 -61 155 -62 292 0 59 -5 122 -12 141 -36
103 -210 144 -469 109 -82 -11 -92 -10 -125 7 -32 18 -81 77 -95 116 -4 11 26
53 94 130 373 423 635 729 650 758 21 40 23 92 7 124 -7 12 -34 45 -60 74 -27
28 -49 58 -49 66 0 8 33 47 73 88 86 88 158 199 208 323 96 241 79 298 -109
361 -89 31 -242 99 -242 109 0 1 60 45 133 97 162 115 320 270 479 469 212
265 229 319 129 414 -25 24 -42 30 -88 34 -49 3 -63 0 -90 -20z"/>
<path d="M3396 6934 c-22 -8 -63 -32 -91 -54 -123 -95 -169 -318 -95 -460 60
-114 215 -178 335 -136 131 44 205 166 205 337 0 98 -25 169 -82 234 -74 84
-177 114 -272 79z"/>
<path d="M5936 6734 c-349 -63 -512 -165 -452 -282 36 -69 103 -81 189 -33
149 83 486 126 662 84 39 -9 92 -17 118 -17 43 -1 52 3 79 33 27 30 30 39 26
82 -6 57 -20 76 -73 100 -110 48 -376 64 -549 33z"/>
<path d="M4659 5480 c-26 -4 -104 -35 -175 -68 -254 -118 -305 -134 -437 -131
-91 2 -121 -13 -136 -67 -13 -48 7 -97 48 -118 44 -23 197 -21 293 3 42 11
156 56 253 100 132 60 189 81 220 81 31 0 82 -19 195 -70 223 -104 284 -122
415 -128 135 -5 178 8 201 63 12 30 13 44 4 71 -18 55 -44 65 -167 69 -125 3
-144 9 -375 114 -93 43 -181 76 -215 81 -64 11 -59 11 -124 0z"/>
<path d="M9840 4951 c-99 -31 -143 -140 -91 -224 26 -42 64 -61 168 -87 45
-11 133 -37 195 -59 498 -169 941 -428 1296 -758 l42 -40 0 207 0 207 -128 96
c-374 280 -803 493 -1237 615 -160 45 -210 54 -245 43z"/>
<path d="M1311 3643 c-99 -50 -280 -475 -366 -858 -51 -227 -66 -364 -72 -625
-6 -280 9 -494 57 -830 54 -374 170 -921 209 -984 56 -89 188 -93 246 -8 34
50 32 85 -14 275 -151 618 -231 1274 -202 1651 14 182 32 308 67 464 50 223
156 504 248 662 46 77 55 132 32 182 -35 74 -133 108 -205 71z"/>
<path d="M9185 2255 c-22 -8 -52 -28 -67 -45 -32 -35 -32 -35 -18 -300 10
-181 0 -409 -21 -498 -17 -73 -93 -221 -146 -286 -26 -32 -56 -68 -67 -81 -28
-35 -32 -104 -8 -152 33 -64 93 -93 168 -79 85 16 243 221 319 415 53 135 60
201 59 526 -1 351 -8 413 -56 462 -28 29 -81 54 -113 53 -5 -1 -28 -7 -50 -15z"/>
<path d="M8315 781 c-73 -33 -103 -108 -79 -195 8 -28 17 -100 21 -161 6 -125
-7 -207 -55 -343 l-29 -82 164 0 163 0 11 27 c37 98 52 202 53 363 1 144 -2
175 -22 244 -28 97 -50 129 -102 150 -52 20 -75 20 -125 -3z"/>
<path d="M1542 713 c-18 -9 -42 -28 -53 -44 -72 -102 -87 -445 -28 -636 l11
-33 163 0 164 0 -23 68 c-49 143 -57 319 -20 442 19 64 14 118 -15 158 -41 58
-131 79 -199 45z"/>
</g>
</svg>
